# xmcd
#
# Track frame offsets:
#	182
#	28042
#	51407
#	78902
#	102215
#	126285
#	156810
#	184477
#
# Disc length: 2854 seconds
#
# Revision: 1
# Processed by: cddbd v1.4PL0 Copyright (c) Steve Scherf et al.
# Submitted via: EasyCDDAExtractor 6.0.0.1
#
DISCID=670b2408
DTITLE=Various Artist - Country Vandrbal
DYEAR=1985
DGENRE=Country
TTITLE0=Rovnou tady rovnou -Blizko little Big Hornu - Oh ruby, Ved me dal, ces
TTITLE0=to ma
TTITLE1=Ma divka N - Maly dum nad skalou - Az na vrcholky hor- Lasko me ubyva 
TTITLE1=sil
TTITLE2=Posledni kovboj - snidane v trave - Halo, bracho muj - Sbohem, lasko, 
TTITLE2=ja jedu dal
TTITLE3=Kamaradka lod - Blues Folsomske veznice - Stryc Teddy - Pole s bavlnou
TTITLE4=Jackson - Bajecna zenska - Jen se priznej ze ti schazim - zvednete kot
TTITLE4=vy
TTITLE5=Vim, Vim - Nákladák - Oranzovy expres - El Passo
TTITLE6=Kral silnic - Cesty toulavy - Vic nez pritel muj - Do sedla jo
TTITLE7=Ptaci nareci - Tisic mil - Vsichni jsou jiz v Mexiku - Abych tu zil
EXTD=
EXTT0=
EXTT1=
EXTT2=
EXTT3=
EXTT4=
EXTT5=
EXTT6=
EXTT7=
PLAYORDER=
